<svg width="550" height="459" viewBox="0 0 550 459" fill="none" xmlns="http://www.w3.org/2000/svg">
<rect width="550" height="459" fill="#282D35"/>
<g clip-path="url(#clip0_375546_3)">
<path d="M549.503 261.767C562.474 261.767 572.988 251.253 572.988 238.282C572.988 225.312 562.474 214.797 549.503 214.797C536.533 214.797 526.018 225.312 526.018 238.282C526.018 251.253 536.533 261.767 549.503 261.767Z" fill="#33373E"/>
<path fill-rule="evenodd" clip-rule="evenodd" d="M549.508 190.533C581.04 190.533 610.332 195.057 632.419 202.661C659.03 211.822 675.391 225.709 675.391 238.283C675.391 251.386 658.051 266.139 629.475 275.607C607.87 282.765 579.44 286.501 549.508 286.501C518.819 286.501 489.759 282.994 467.911 275.528C440.269 266.08 423.62 251.137 423.62 238.283C423.62 225.811 439.242 212.031 465.479 202.884C487.648 195.155 517.664 190.533 549.504 190.533H549.508Z" stroke="#33373E" stroke-width="11.2354"/>
<path fill-rule="evenodd" clip-rule="evenodd" d="M507.943 214.545C523.696 187.23 542.249 164.115 559.869 148.78C581.1 130.305 601.303 123.069 612.195 129.35C623.547 135.896 627.664 158.288 621.589 187.772C617.002 210.064 606.031 236.558 591.078 262.487C575.746 289.072 558.191 312.494 540.81 327.686C518.817 346.912 497.554 353.869 486.42 347.448C475.615 341.221 471.483 320.801 476.666 293.502C481.046 270.437 492.036 242.126 507.938 214.544L507.943 214.545Z" stroke="#33373E" stroke-width="11.2354"/>
<path fill-rule="evenodd" clip-rule="evenodd" d="M507.973 262.557C492.175 235.272 481.42 207.65 476.93 184.726C471.526 157.106 475.347 135.988 486.23 129.689C497.57 123.123 519.025 130.739 541.536 150.727C558.555 165.838 576.032 188.57 591.029 214.475C606.404 241.034 617.928 267.941 622.411 290.586C628.084 319.242 623.492 341.138 612.368 347.577C601.574 353.826 581.822 347.21 560.76 329.086C542.965 313.773 523.926 290.112 507.973 262.556V262.557Z" stroke="#33373E" stroke-width="11.2354"/>
</g>
<defs>
<clipPath id="clip0_375546_3">
<rect width="263" height="263" fill="white" transform="translate(418 107)"/>
</clipPath>
</defs>
</svg>
